Simulation
nRows=42
nColumns=15
endheader
time  TH_x TH_y TH_z SC_y  SC_z  SC_x  AC_y  AC_z  AC_x  GH_y  GH_z  GH_yy  EL_x  PS_y
1.9499999999999993  0.000000  0.000000  0.000000  -29.831191681158202  7.458268084158836  25.202787809659704  63.69057027601646  10.723834615186526  -2.0048994986618474  48.17262061599075  58.98222002853995  -43.57328239205678  22.290015990179114  0.000000
1.9889999999999992  0.000000  0.000000  0.000000  -29.64253133707415  7.171087802110221  24.68490931893845  63.4647197546993  10.544581781612344  -2.6756695477313213  48.62638302523776  58.09430555934497  -43.119469077700934  22.508219854667455  0.000000
2.027999999999999  0.000000  0.000000  0.000000  -29.407063160950475  6.842793555693139  24.105550892002753  63.21072709947948  10.339897667919908  -3.4050932178153444  49.12929661423223  57.0939346453212  -42.728824667573754  22.71327760817737  0.000000
2.0669999999999993  0.000000  0.000000  0.000000  -29.129468529864695  6.478452100220889  23.46827517523243  62.93434929962659  10.109849539922752  -4.174076651576341  49.68148131217418  55.993419652617526  -42.40649685663018  22.892729569381107  0.000000
2.1059999999999994  0.000000  0.000000  0.000000  -28.81727482064027  6.08119484401935  22.779648550401287  62.64213835908329  9.857512104863922  -4.964555071577213  50.261197691183625  54.8090130528336  -42.103215512264654  23.036644375891402  0.000000
2.144999999999999  0.000000  0.000000  0.000000  -28.47836248169736  5.653113007668325  22.047335501314073  62.33816020246019  9.589418143117813  -5.76251812153541  50.83083478140991  53.55845385923591  -41.74201550669957  23.13787835106119  0.000000
2.1839999999999993  0.000000  0.000000  0.000000  -28.121640606015337  5.1962231013646765  21.273009527719243  62.024976755853665  9.315039854400728  -6.555006275791197  51.351429786613025  52.26015449364709  -41.25923941231391  23.196411492428705  0.000000
2.2229999999999994  0.000000  0.000000  0.000000  -27.760626119616763  4.713876670776809  20.446663975144986  61.70665129922772  9.044266444641158  -7.3243100240331485  51.79380643717422  50.933549889664725  -40.629682091306776  23.223474425586424  0.000000
2.261999999999999  0.000000  0.000000  0.000000  -27.417045185811332  4.212263174372916  19.54438421333716  61.392213352651574  8.783305791726209  -8.041088092300003  52.134290412454185  49.59840671548455  -39.85697204736194  23.240170303638706  0.000000
2.3009999999999993  0.000000  0.000000  0.000000  -27.11937651300217  3.7028898984650978  18.531257777396974  61.09552585802924  8.532671504889784  -8.661085824482901  52.33972568584298  48.270452884202136  -38.939670977069795  23.269162170130556  0.000000
2.339999999999999  0.000000  0.000000  0.000000  -26.891412136954592  3.2018209106258473  17.371897431036658  60.828413229329  8.293249824428798  -9.135056043686856  52.35964761103453  46.95237354824379  -37.84142201826344  23.327264601300033  0.000000
2.378999999999999  0.000000  0.000000  0.000000  -26.741067215007288  2.723983353658439  16.04412579790555  60.59210526849194  8.07429607698169  -9.427744507032614  52.14006568723582  45.630067979474944  -36.494662628578354  23.426808630092214  0.000000
2.4179999999999993  0.000000  0.000000  0.000000  -26.661357232530364  2.2769169149632003  14.548023692636542  60.37215492366572  7.893534615091147  -9.529613152430986  51.64746130797072  44.2796725677007  -34.83047470888526  23.58216293669064  0.000000
2.456999999999999  0.000000  0.000000  0.000000  -26.637874495427223  1.861104655326431  12.904782565371313  60.14625001914419  7.769430800913025  -9.456818402901927  50.87242748470666  42.88100169038952  -32.80475685908911  23.809921959383153  0.000000
2.495999999999999  0.000000  0.000000  0.000000  -26.658031882700943  1.474454184891571  11.149116560306917  59.89614300520439  7.711458135030777  -9.239174789269923  49.816941462214075  41.426188078698544  -30.407027016771405  24.123319403410573  0.000000
2.5349999999999993  0.000000  0.000000  0.000000  -26.715185845861154  1.1142171651605681  9.3209944590671  59.61250897698929  7.718600958872585  -8.909365432217747  48.48738554133334  39.92046260159219  -27.660385563933378  24.527733170193773  0.000000
2.573999999999999  0.000000  0.000000  0.000000  -26.805900804779263  0.7786943534135664  7.46091428036933  59.29517062623048  7.7825613853124  -8.496697633661475  46.893841034919376  38.37663491367693  -24.616129477606  25.0153708636805  0.000000
2.612999999999999  0.000000  0.000000  0.000000  -26.925560428291522  0.46745386704246733  5.607148048131529  58.95066754758208  7.890922160102885  -8.025715885302747  45.054977694715205  36.809741318027086  -21.34996525673884  25.56021305566754  0.000000
2.6519999999999992  0.000000  0.000000  0.000000  -27.066392000527475  0.1804081503143079  3.7947076781265396  58.588544793801546  8.030176911123766  -7.517825836931221  43.00419634644662  35.231818531934685  -17.956973514614504  26.119285447142943  0.000000
2.690999999999999  0.000000  0.000000  0.000000  -27.220072922416755  -0.0817242575296048  2.0555746421363192  58.216527740727436  8.188380921876648  -6.994399469041654  40.79384449569778  33.64855890663429  -14.541132862707927  26.642515985778235  0.000000
2.729999999999999  0.000000  0.000000  0.000000  -27.38128836301613  -0.3164529320692562  0.41965696611962094  57.83640168779667  8.357437661157292  -6.479181046107405  38.49417139152786  32.05791831137462  -11.201048030834528  27.085718504588762  0.000000
2.768999999999999  0.000000  0.000000  0.000000  -27.549444277657503  -0.5190839602045599  -1.0847134388244004  57.442803114072746  8.533073007677848  -5.998801140748286  36.188383430295396  30.452207496959545  -8.019412100802487  27.418632687377166  0.000000
2.807999999999999  0.000000  0.000000  0.000000  -27.728041894058276  -0.6840456584853466  -2.431090842958223  57.025762922749976  8.7122473497705  -5.581280316230711  33.96459996693839  28.822415443750387  -5.060395638648642  27.626154278087913  0.000000
2.846999999999999  0.000000  0.000000  0.000000  -27.92102884714242  -0.806553163923916  -3.595576724696353  56.57535920801229  8.890315356467735  -5.252999751089432  31.905803120999707  27.161643311805328  -2.3710266350866256  27.705148029614662  0.000000
2.885999999999999  0.000000  0.000000  0.000000  -28.128386732722362  -0.8841284383942901  -4.558473575505742  56.086545025720255  9.059270134280585  -5.034990291144863  30.076541119321636  25.468214932359476  0.02062459047449015  27.661297249763606  0.000000
2.924999999999999  0.000000  0.000000  0.000000  -28.343584162522173  -0.9179921143737765  -5.305760501605666  55.56292817853388  9.208113904912938  -4.940069855657796  28.507705015767318  23.747434826502325  2.111679413892578  27.509467837434688  0.000000
2.963999999999999  0.000000  0.000000  0.000000  -28.553734925200274  -0.9145089972874302  -5.831563949159824  55.01889649289362  9.32460676572265  -4.971307481084535  27.18004604816979  22.01349999828219  3.934378552777941  27.27558109960329  0.000000
3.002999999999999  0.000000  0.000000  0.000000  -28.743796248292046  -0.8855575512619611  -6.140437628285071  54.47971761701692  9.398016828578912  -5.120978734409209  26.016913664102084  20.289180145154024  5.558748299783129  26.995804586244773  0.000000
3.041999999999999  0.000000  0.000000  0.000000  -28.902435146520357  -0.8457009892035637  -6.2482851113023115  53.97875860448554  9.420043309115586  -5.370562366694912  24.89943076320142  18.604233413744897  7.076512719995165  26.70909202583791  0.000000
3.080999999999999  0.000000  0.000000  0.000000  -29.025086866942278  -0.807995197980655  -6.180023841258187  53.55068614194584  9.384834558006872  -5.692913279144319  23.7117730035698  16.99104419503348  8.560875108185279  26.444025445463375  0.000000
3.1199999999999988  0.000000  0.000000  0.000000  -29.11502130904405  -0.7794250540248244  -5.965313276791201  53.22086395346786  9.288647603539191  -6.057061613786899  22.40500892290469  15.479833302142685  10.012684190291216  26.21084310957782  0.000000
3.158999999999999  0.000000  0.000000  0.000000  -29.18309294335472  -0.7572346316782973  -5.634311392517721  52.99677994975493  9.131263340009246  -6.43401004961928  21.044892839002774  14.093301198577542  11.322815163146856  26.006306744419156  0.000000
3.197999999999999  0.000000  0.000000  0.000000  -29.243341827594264  -0.7311586137188772  -5.216217529780468  52.86629398887708  8.919581280412157  -6.801471333759205  19.803511009898635  12.843925290824508  12.288201742398424  25.82537640061464  0.000000
3.2369999999999988  0.000000  0.000000  0.000000  -29.306043183874213  -0.6903897716990287  -4.739940941730094  52.80631855200831  8.669560679820975  -7.145076249688513  18.891211402797783  11.736093416736225  12.68348208710258  25.669620686513582  0.000000
3.275999999999999  0.000000  0.000000  0.000000  -29.37167561130117  -0.630684592566452  -4.234939224568219  52.79514943127766  8.403331105514727  -7.455150496565947  18.462301073012643  10.771561088882722  12.355345822585983  25.547510303227316  0.000000
3.3149999999999986  0.000000  0.000000  0.000000  -29.431550828020892  -0.5573341598473398  -3.731032793381566  52.82130540880362  8.143792197637397  -7.722986980396477  18.55984870743455  9.953675358882734  11.27605700381979  25.46778463292903  0.000000
3.3539999999999988  0.000000  0.000000  0.000000  -29.475172892233626  -0.48281215266988814  -3.2572760729903565  52.883681677607136  7.909770930046674  -7.938724728591708  19.120331842763452  9.287480834630184  9.534853295833823  25.434988161089077  0.000000
3.392999999999999  0.000000  0.000000  0.000000  -29.49891160043698  -0.4211098360596065  -2.8399561286534505  52.985525072802794  7.7145034299085165  -8.09302754594496  20.027248184074388  8.77635618527344  7.282553261810858  25.450716687566572  0.000000
3.4319999999999986  0.000000  0.000000  0.000000  -29.509714033551738  -0.38100047101966183  -2.4998573603442202  53.12644901982465  7.5653592598229  -8.179744275651716  21.169107773557556  8.418387666303847  4.674902690934367  25.517952765716533  0.000000
3.4709999999999988  0.000000  0.000000  0.000000  -29.52157987801214  -0.3638511275787288  -2.2497267099760623  53.29867004146239  7.465213697093023  -8.19905309367569  22.469797896757235  8.204825568306967  1.846014028121974  25.64068023286505  0.000000
3.509999999999999  0.000000  0.000000  0.000000  -29.545973718592897  -0.36613969431535237  -2.093828326418098  53.48897283157351  7.415090604413378  -8.15754463944187  23.874327306445984  8.120554497149922  -1.0748309671270573  25.818374541016116  0.000000
3.5489999999999986  0.000000  0.000000  0.000000  -29.583910945667864  -0.3808382196159699  -2.0271012123580623  53.6847356219451  7.414007294234054  -8.063781076084469  25.309092440141455  8.14470441328117  -3.924376220718269  26.041732203844816  0.000000
